<?xml version="1.0" standalone="no"?><!DOCTYPE svg PUBLIC "-//W3C//DTD SVG 1.1//EN" "http://www.w3.org/Graphics/SVG/1.1/DTD/svg11.dtd"><svg height="1024" node-id="1" sillyvg="true" template-height="1024" template-width="1024" version="1.1" viewBox="0 0 1024 1024" width="1024" xmlns="http://www.w3.org/2000/svg" xmlns:xlink="http://www.w3.org/1999/xlink"><defs node-id="16"><linearGradient gradientUnits="objectBoundingBox" id="paint0_linear_14934_14844" node-id="12" spreadMethod="pad" x1="157.78" x2="157.78" y1="528.895" y2="919.895"><stop offset="0" stop-color="#fdfeff"></stop><stop offset="1" stop-color="#ecf0f5"></stop></linearGradient></defs><path d="M 850.72 543.70 L 850.72 815.01 C 850.72 871.38 804.87 917.22 747.75 917.22 L 271.26 917.22 C 214.90 917.22 169.05 872.13 168.30 815.76 C 168.30 815.01 168.30 815.01 168.30 814.26 L 168.30 543.70 C 168.30 542.95 168.30 542.95 168.30 542.20 C 168.30 540.69 168.30 539.19 169.05 537.69 C 169.80 535.43 170.56 533.93 171.31 531.67 L 299.07 287.42 C 303.58 277.65 313.35 272.38 323.87 272.38 L 694.39 272.38 C 704.91 272.38 713.93 277.65 719.19 287.42 L 846.96 531.67 C 847.71 533.18 848.46 535.43 849.21 537.69 C 850.72 539.19 850.72 541.44 850.72 543.70 Z" fill="#d5ddea" fill-rule="nonzero" node-id="25" stroke="none" target-height="644.839" target-width="682.416" target-x="168.301" target-y="272.385"></path><path d="M 850.72 543.70 L 850.72 842.82 C 850.72 884.15 817.65 917.22 775.56 917.22 L 243.46 917.22 C 202.12 917.22 168.30 884.15 168.30 842.82 L 168.30 542.20 C 168.30 540.69 168.30 539.19 169.05 537.69 L 340.41 537.69 C 365.96 537.69 387.00 557.98 387.00 584.28 C 387.00 597.06 392.27 609.09 400.53 617.35 C 409.55 626.37 420.07 630.88 433.60 630.88 L 586.17 630.88 C 611.72 630.88 632.76 610.59 632.76 584.28 C 632.76 571.51 638.03 559.48 646.29 551.21 C 655.31 542.20 665.83 537.69 678.61 537.69 L 849.21 537.69 C 850.72 539.19 850.72 541.44 850.72 543.70 Z" fill="url(#paint0_linear_14934_14844)" fill-rule="nonzero" node-id="27" stroke="none" target-height="379.53802" target-width="682.416" target-x="168.301" target-y="537.686"></path><path d="M 697.55 181.97 C 707.36 289.07 712.26 313.57 690.05 410.52 C 682.83 432.09 675.62 455.69 660.13 472.15 C 638.47 497.78 599.26 509.05 567.28 500.86 C 534.27 492.67 507.45 463.88 501.25 429.01 C 496.10 407.44 503.32 381.81 521.89 368.44 C 541.49 356.11 569.34 359.19 585.86 374.60 C 604.43 390.01 611.65 413.60 610.61 436.23 C 609.58 458.77 601.33 481.39 589.98 500.86 C 564.32 548.81 553.76 548.66 501.25 627.42" fill="none" node-id="29" stroke="#abb5cc" stroke-dasharray="30.06 30.06" stroke-linecap="butt" stroke-width="15.0312" target-height="445.44897" target-width="216.164" target-x="496.097" target-y="181.973"></path><path d="M 755.07 142.06 C 751.15 156.42 735.46 161.61 719.78 152.51 C 702.78 144.69 691.02 138.16 693.63 125.16 C 697.55 112.15 713.24 110.88 731.54 109.60 C 753.76 106.97 757.68 127.78 755.07 142.06 Z" fill="#dae2eb" fill-rule="nonzero" node-id="31" stroke="none" target-height="54.639008" target-width="66.662964" target-x="691.022" target-y="106.966995"></path><path d="M 628.26 155.07 C 634.80 166.79 653.10 174.61 666.17 162.88 C 680.55 149.88 692.31 140.79 685.78 127.78 C 679.24 116.06 668.79 119.97 646.56 122.60 C 628.26 126.51 620.42 142.06 628.26 155.07 Z" fill="#dae2eb" fill-rule="nonzero" node-id="33" stroke="none" target-height="58.546997" target-width="71.89398" target-x="620.416" target-y="116.06"></path><path d="M 685.78 106.97 C 694.93 105.69 704.09 110.88 706.70 118.69 C 708.01 121.25 709.32 125.16 709.32 127.78 C 711.92 145.97 705.39 161.60 694.93 162.88 C 683.17 165.51 671.41 152.51 670.10 135.60 C 670.10 130.34 670.10 127.78 670.10 123.88 C 671.41 114.78 676.63 108.25 685.78 106.97 C 687.09 106.97 685.78 106.97 685.78 106.97 Z" fill="#989fb0" fill-rule="nonzero" node-id="35" stroke="none" target-height="59.825005" target-width="41.824036" target-x="670.1" target-y="105.689"></path><path d="M 423.76 738.80 C 433.28 738.80 441.00 731.06 441.00 721.52 C 441.00 712.05 433.28 704.31 423.76 704.31 C 414.24 704.31 406.52 712.05 406.52 721.52 C 406.52 731.06 414.24 738.80 423.76 738.80 Z" fill="#989fb0" fill-rule="nonzero" node-id="37" stroke="none" target-height="34.49695" target-width="34.480988" target-x="406.518" target-y="704.306"></path><path d="M 595.26 738.80 C 604.78 738.80 612.50 731.06 612.50 721.52 C 612.50 712.05 604.78 704.31 595.26 704.31 C 585.74 704.31 578.02 712.05 578.02 721.52 C 578.02 731.06 585.74 738.80 595.26 738.80 Z" fill="#989fb0" fill-rule="nonzero" node-id="39" stroke="none" target-height="34.49695" target-width="34.481018" target-x="578.018" target-y="704.306"></path><path d="M 537.47 852.06 L 483.41 852.06 C 475.02 852.06 468.03 845.07 468.03 836.66 C 468.03 828.24 475.02 821.25 483.41 821.25 L 537.00 821.25 C 545.39 821.25 552.38 828.24 552.38 836.66 C 552.85 845.07 545.86 852.06 537.47 852.06 Z" fill="#989fb0" fill-rule="nonzero" node-id="41" stroke="none" target-height="30.814087" target-width="84.813995" target-x="468.033" target-y="821.24994"></path></svg>